<?xml version="1.0" encoding="UTF-8"?>
<svg width="48px" height="48px" viewBox="0 0 48 48" xmlns="http://www.w3.org/2000/svg" xmlns:xlink="http://www.w3.org/1999/xlink" version="1.1">
 <!-- Generated by Pixelmator Pro 2.0.8 -->
 <path id="Elipse" d="M25 20.5 C25 18.015 22.985 16 20.5 16 18.015 16 16 18.015 16 20.5 16 22.985 18.015 25 20.5 25 22.985 25 25 22.985 25 20.5 Z" fill="#ffffff" fill-opacity="0.653" stroke="none"/>
 <path id="Retângulo-arredondado" d="M18.615 14 C16.066 14 14 16.066 14 18.615 L14 29.385 C14 31.934 16.066 34 18.615 34 L29.385 34 C31.934 34 34 31.934 34 29.385 L34 18.615 C34 16.066 31.934 14 29.385 14 Z" fill="none" stroke="#ffffff" stroke-width="2" stroke-opacity="1" stroke-linejoin="round" stroke-linecap="round"/>
</svg>
