<?xml version="1.0" encoding="UTF-8"?>
<svg width="48px" height="48px" viewBox="0 0 48 48" xmlns="http://www.w3.org/2000/svg" xmlns:xlink="http://www.w3.org/1999/xlink" version="1.1">
 <!-- Generated by Pixelmator Pro 2.0.8 -->
 <path id="Retângulo-arredondado" d="M10 18 C7.791 18 6 19.791 6 22 L6 28 C6 30.209 7.791 32 10 32 L38 32 C40.209 32 42 30.209 42 28 L42 22 C42 19.791 40.209 18 38 18 Z" fill="none" stroke="#ffffff" stroke-width="2" stroke-opacity="1" stroke-linejoin="round" stroke-linecap="round"/>
 <path id="Retângulo-arredondado-1" d="M12 17 C9.791 17 8 18.791 8 21 8 23.209 9.791 25 12 25 L36 25 C38.209 25 40 23.209 40 21 40 18.791 38.209 17 36 17 Z" fill="#ffffff" fill-opacity="0.503" stroke="none"/>
</svg>
