<?xml version="1.0" encoding="UTF-8"?>
<svg width="48px" height="48px" viewBox="0 0 48 48" xmlns="http://www.w3.org/2000/svg" xmlns:xlink="http://www.w3.org/1999/xlink" version="1.1">
 <!-- Generated by Pixelmator Pro 2.0.8 -->
 <path id="Retângulo-arredondado" d="M9 18 C6.791 18 5 19.791 5 22 L5 28 C5 30.209 6.791 32 9 32 L39 32 C41.209 32 43 30.209 43 28 L43 22 C43 19.791 41.209 18 39 18 Z" fill="none" stroke="#ffffff" stroke-width="2" stroke-opacity="1" stroke-linejoin="round" stroke-linecap="round"/>
 <path id="Retângulo-arredondado-1" d="M10 17 C7.791 17 6 18.791 6 21 L6 21 C6 23.209 7.791 25 10 25 L38 25 C40.209 25 42 23.209 42 21 L42 21 C42 18.791 40.209 17 38 17 Z" fill="#ffffff" fill-opacity="0.496" stroke="none"/>
</svg>
