<?xml version="1.0" encoding="UTF-8"?>
<svg width="48px" height="48px" viewBox="0 0 48 48" xmlns="http://www.w3.org/2000/svg" xmlns:xlink="http://www.w3.org/1999/xlink" version="1.1">
 <!-- Generated by Pixelmator Pro 2.0.8 -->
 <path id="Retângulo-arredondado" d="M9 18 C6.791 18 5 19.791 5 22 L5 28 C5 30.209 6.791 32 9 32 L39 32 C41.209 32 43 30.209 43 28 L43 22 C43 19.791 41.209 18 39 18 Z" fill="none" stroke="#ffffff" stroke-width="2" stroke-opacity="1" stroke-linejoin="round" stroke-linecap="round"/>
 <path id="Retângulo-arredondado-1" d="M11 17 C8.791 17 7 18.791 7 21 L7 21 C7 23.209 8.791 25 11 25 L37 25 C39.209 25 41 23.209 41 21 L41 21 C41 18.791 39.209 17 37 17 Z" fill="#ffffff" fill-opacity="0.496" stroke="none"/>
</svg>
