<?xml version="1.0" encoding="UTF-8"?>
<svg width="32px" height="32px" viewBox="0 0 32 32" xmlns="http://www.w3.org/2000/svg" xmlns:xlink="http://www.w3.org/1999/xlink" version="1.1">
 <!-- Generated by Pixelmator Pro 2.2 -->
 <path id="Traçado" d="M17 0 C8.7 0 2 6.7 2 15 2 18.4 3.1 21.6 5.2 24.2 L3.1 30.6 C3 31 3.1 31.4 3.4 31.7 3.5 31.9 3.8 32 4 32 4.1 32 4.3 32 4.4 31.9 L11.3 28.8 C13.1 29.6 15 30 17 30 25.3 30 32 23.3 32 15 32 6.7 25.3 0 17 0 Z M25.7 20.5 C25.3 21.7 23.8 22.7 22.5 22.9 22.2 23 21.9 23 21.5 23 20.7 23 19.5 22.8 17.4 21.9 15 20.9 12.6 18.8 10.7 16.1 L10.7 16 C10.1 15.1 9 13.4 9 11.6 9 9.4 10.1 8.3 10.5 7.8 11 7.3 11.7 7 12.5 7 L13 7 C13.7 7 14.2 7.2 14.7 8.2 L15.1 9 C15.4 9.8 15.8 10.7 15.9 10.8 16.2 11.4 16.2 11.9 15.9 12.4 15.8 12.7 15.6 12.9 15.4 13.1 15.3 13.3 15.2 13.4 15.1 13.4 15 13.5 15 13.5 14.9 13.6 15.2 14.1 15.8 15 16.6 15.7 17.8 16.8 18.7 17.1 19.2 17.3 19.4 17.1 19.6 16.7 19.9 16.4 L20 16.2 C20.5 15.5 21.3 15.3 22.1 15.6 22.5 15.8 24.7 16.8 24.7 16.8 L24.9 16.9 C25.2 17.1 25.6 17.2 25.8 17.6 26.2 18.5 25.9 19.8 25.7 20.5 Z" fill="#ffffff" fill-opacity="1" stroke="none"/>
</svg>
