<?xml version="1.0" encoding="UTF-8"?>
<svg width="32px" height="32px" viewBox="0 0 32 32" xmlns="http://www.w3.org/2000/svg" xmlns:xlink="http://www.w3.org/1999/xlink" version="1.1">
 <!-- Generated by Pixelmator Pro 2.2 -->
 <path id="Traçado" d="M31.4 8.6 C31.2 7 29.8 5.6 28.1 5.5 18.3 4.8 13.5 4.8 3.8 5.5 2.2 5.6 0.8 7 0.6 8.6 -0.2 14.5 -0.2 17.5 0.6 23.4 0.8 25 2.3 26.4 3.9 26.5 8.7 26.8 12.4 27 16 27 19.6 27 23.3 26.8 28.2 26.5 29.8 26.4 31.2 25 31.5 23.4 32.2 17.5 32.2 14.5 31.4 8.6 Z M21.1 17.7 L15.1 21.7 C14.8 21.9 14.4 22 14 22 13.7 22 13.3 21.9 13.1 21.8 12.4 21.4 12 20.8 12 20 L12 12 C12 11.2 12.4 10.6 13.1 10.2 13.8 9.8 14.5 9.9 15.2 10.3 L21.2 14.3 C21.8 14.7 22.1 15.3 22.1 16 22.1 16.7 21.7 17.3 21.1 17.7 Z" fill="#ffffff" fill-opacity="1" stroke="none"/>
</svg>
